<svg xmlns="http://www.w3.org/2000/svg" style="display:none">
  <symbol id="icon-music" viewBox="0 0 16 16" fill="currentColor">
    <path d="M14 1.75a.75.75 0 0 0-.89-.737l-7.502 1.43a.75.75 0 0 0-.61.736v2.5c0 .018 0 .036.002.054V9.73a1 1 0 0 1-.813.983l-.58.11a1.978 1.978 0 0 0 .741 3.886l.603-.115c.9-.171 1.55-.957 1.55-1.873v-1.543l-.001-.043V6.3l6-1.143v3.146a1 1 0 0 1-.813.982l-.584.111a1.978 1.978 0 0 0 .74 3.886l.326-.062A2.252 2.252 0 0 0 14 11.007V1.75Z" />
  </symbol>

  <symbol id="icon-play" viewBox="0 0 24 24" fill="currentColor">
    <path fill-rule="evenodd" d="M4.5 5.653c0-1.427 1.529-2.33 2.779-1.643l11.54 6.347c1.295.712 1.295 2.573 0 3.286L7.28 19.99c-1.25.687-2.779-.217-2.779-1.643V5.653Z" clip-rule="evenodd" />
  </symbol>

  <symbol id="icon-arrow-left" viewBox="0 0 24 24" fill="currentColor">
    <path fill-rule="evenodd" d="M11.03 3.97a.75.75 0 0 1 0 1.06l-6.22 6.22H21a.75.75 0 0 1 0 1.5H4.81l6.22 6.22a.75.75 0 1 1-1.06 1.06l-7.5-7.5a.75.75 0 0 1 0-1.06l7.5-7.5a.75.75 0 0 1 1.06 0Z" clip-rule="evenodd" />
  </symbol>

  <symbol id="icon-arrow-right" viewBox="0 0 24 24" fill="currentColor">
    <path fill-rule="evenodd" d="M12.97 3.97a.75.75 0 0 1 1.06 0l7.5 7.5a.75.75 0 0 1 0 1.06l-7.5 7.5a.75.75 0 1 1-1.06-1.06l6.22-6.22H3a.75.75 0 0 1 0-1.5h16.19l-6.22-6.22a.75.75 0 0 1 0-1.06Z" clip-rule="evenodd" />
  </symbol>
</svg>
